HIERARCHY
ROOT Hips
{
  OFFSET 5.84602e-005 68.8428 3.50346
  CHANNELS 6 Xposition Yposition Zposition Zrotation Xrotation Yrotation
  JOINT Spine
  {
    OFFSET 0 8.597 -4.6522
    CHANNELS 3 Zrotation Xrotation Yrotation
    JOINT Spine1
    {
      OFFSET 0 7.8454 0.4098
      CHANNELS 3 Zrotation Xrotation Yrotation
      JOINT Spine2
      {
        OFFSET 0 9.7078 -2.1609
        CHANNELS 3 Zrotation Xrotation Yrotation
        JOINT Neck
        {
          OFFSET 0 21.8761 -0.4549
          CHANNELS 3 Zrotation Xrotation Yrotation
          JOINT Head
          {
            OFFSET 0 12.3537 3.3602
            CHANNELS 3 Zrotation Xrotation Yrotation
            End Site
            {
              OFFSET 0.0001 18.9506 0.5657
            }
          }
        }
        JOINT LeftShoulder
        {
          OFFSET 2.2086 21.1115 7.2329
          CHANNELS 3 Zrotation Xrotation Yrotation
          JOINT LeftArm
          {
            OFFSET 13.1193 3.0282 -4.8998
            CHANNELS 3 Zrotation Xrotation Yrotation
            JOINT LeftForeArm
            {
              OFFSET 27.4081 -0.0973053 -0.2375
              CHANNELS 3 Zrotation Xrotation Yrotation
              JOINT LeftHand
              {
                OFFSET 22.8641 0.0662994 -0.1369
                CHANNELS 3 Zrotation Xrotation Yrotation
                JOINT LeftHandIndex1
                {
                  OFFSET 8.8614 0.775009 2.4612
                  CHANNELS 3 Zrotation Xrotation Yrotation
                  JOINT LeftHandIndex2
                  {
                    OFFSET 3.3146 -0.808304 0.5841
                    CHANNELS 3 Zrotation Xrotation Yrotation
                    JOINT LeftHandIndex3
                    {
                      OFFSET 2.2628 -0.552002 0.3989
                      CHANNELS 3 Zrotation Xrotation Yrotation
                      End Site
                      {
                        OFFSET 1.6102 -0.4807 0.2612
                      }
                    }
                  }
                }
                JOINT LeftHandMiddle1
                {
                  OFFSET 8.9937 0.895004 0.2143
                  CHANNELS 3 Zrotation Xrotation Yrotation
                  JOINT LeftHandMiddle2
                  {
                    OFFSET 4.0984 0.0113983 -0.0242
                    CHANNELS 3 Zrotation Xrotation Yrotation
                    JOINT LeftHandMiddle3
                    {
                      OFFSET 2.2716 0.00689697 -0.0138001
                      CHANNELS 3 Zrotation Xrotation Yrotation
                      End Site
                      {
                        OFFSET 2.0404 -0.1441 0.0027
                      }
                    }
                  }
                }
                JOINT LeftHandRing1
                {
                  OFFSET 8.5234 0.597198 -2.0164
                  CHANNELS 3 Zrotation Xrotation Yrotation
                  JOINT LeftHandRing2
                  {
                    OFFSET 3.7188 -0.188293 -0.2328
                    CHANNELS 3 Zrotation Xrotation Yrotation
                    JOINT LeftHandRing3
                    {
                      OFFSET 2.1191 -0.106598 -0.1332
                      CHANNELS 3 Zrotation Xrotation Yrotation
                      End Site
                      {
                        OFFSET 1.8737 -0.2304 -0.0886
                      }
                    }
                  }
                }
                JOINT LeftHandPinky1
                {
                  OFFSET 7.9094 -0.601089 -3.4825
                  CHANNELS 3 Zrotation Xrotation Yrotation
                  JOINT LeftHandPinky2
                  {
                    OFFSET 2.2874 -0.477005 -0.6314
                    CHANNELS 3 Zrotation Xrotation Yrotation
                    JOINT LeftHandPinky3
                    {
                      OFFSET 1.6774 -0.349396 -0.4633
                      CHANNELS 3 Zrotation Xrotation Yrotation
                      End Site
                      {
                        OFFSET 1.4888 -0.4091 -0.3416
                      }
                    }
                  }
                }
                JOINT LeftHandThumb1
                {
                  OFFSET 1.833 -1.3875 1.3896
                  CHANNELS 3 Zrotation Xrotation Yrotation
                  JOINT LeftHandThumb2
                  {
                    OFFSET 3.4129 -1.121 2.5732
                    CHANNELS 3 Zrotation Xrotation Yrotation
                    JOINT LeftHandThumb3
                    {
                      OFFSET 2.2474 -0.804199 1.6192
                      CHANNELS 3 Zrotation Xrotation Yrotation
                      End Site
                      {
                        OFFSET 1.6527 -0.5689 1.1317
                      }
                    }
                  }
                }
              }
            }
          }
        }
        JOINT RightShoulder
        {
          OFFSET -2.2086 21.1115 7.2329
          CHANNELS 3 Zrotation Xrotation Yrotation
          JOINT RightArm
          {
            OFFSET -13.1216 3.0287 -4.9007
            CHANNELS 3 Zrotation Xrotation Yrotation
            JOINT RightForeArm
            {
              OFFSET -27.4081 -0.0973053 -0.2375
              CHANNELS 3 Zrotation Xrotation Yrotation
              JOINT RightHand
              {
                OFFSET -22.8641 0.0664063 -0.1369
                CHANNELS 3 Zrotation Xrotation Yrotation
                JOINT RightHandIndex1
                {
                  OFFSET -8.8614 0.774994 2.4612
                  CHANNELS 3 Zrotation Xrotation Yrotation
                  JOINT RightHandIndex2
                  {
                    OFFSET -3.3146 -0.808304 0.5841
                    CHANNELS 3 Zrotation Xrotation Yrotation
                    JOINT RightHandIndex3
                    {
                      OFFSET -2.2628 -0.552002 0.3989
                      CHANNELS 3 Zrotation Xrotation Yrotation
                      End Site
                      {
                        OFFSET -1.6102 -0.4807 0.2612
                      }
                    }
                  }
                }
                JOINT RightHandMiddle1
                {
                  OFFSET -8.9937 0.894989 0.2143
                  CHANNELS 3 Zrotation Xrotation Yrotation
                  JOINT RightHandMiddle2
                  {
                    OFFSET -4.0984 0.0113983 -0.0242
                    CHANNELS 3 Zrotation Xrotation Yrotation
                    JOINT RightHandMiddle3
                    {
                      OFFSET -2.2716 0.00691223 -0.0138001
                      CHANNELS 3 Zrotation Xrotation Yrotation
                      End Site
                      {
                        OFFSET -2.0404 -0.1441 0.0027
                      }
                    }
                  }
                }
                JOINT RightHandRing1
                {
                  OFFSET -8.5234 0.597198 -2.0164
                  CHANNELS 3 Zrotation Xrotation Yrotation
                  JOINT RightHandRing2
                  {
                    OFFSET -3.7188 -0.188309 -0.2328
                    CHANNELS 3 Zrotation Xrotation Yrotation
                    JOINT RightHandRing3
                    {
                      OFFSET -2.1191 -0.106598 -0.1332
                      CHANNELS 3 Zrotation Xrotation Yrotation
                      End Site
                      {
                        OFFSET -1.8737 -0.2304 -0.0886
                      }
                    }
                  }
                }
                JOINT RightHandPinky1
                {
                  OFFSET -7.9094 -0.601105 -3.4825
                  CHANNELS 3 Zrotation Xrotation Yrotation
                  JOINT RightHandPinky2
                  {
                    OFFSET -2.2874 -0.477005 -0.6314
                    CHANNELS 3 Zrotation Xrotation Yrotation
                    JOINT RightHandPinky3
                    {
                      OFFSET -1.6774 -0.349396 -0.4633
                      CHANNELS 3 Zrotation Xrotation Yrotation
                      End Site
                      {
                        OFFSET -1.4888 -0.4091 -0.3416
                      }
                    }
                  }
                }
                JOINT RightHandThumb1
                {
                  OFFSET -1.833 -1.38751 1.3896
                  CHANNELS 3 Zrotation Xrotation Yrotation
                  JOINT RightHandThumb2
                  {
                    OFFSET -3.41299 -1.12099 2.5732
                    CHANNELS 3 Zrotation Xrotation Yrotation
                    JOINT RightHandThumb3
                    {
                      OFFSET -2.24741 -0.804108 1.6192
                      CHANNELS 3 Zrotation Xrotation Yrotation
                      End Site
                      {
                        OFFSET -1.6527 -0.5689 1.1317
                      }
                    }
                  }
                }
              }
            }
          }
        }
      }
    }
  }
  JOINT RightUpLeg
  {
    OFFSET -9.1966 3.8861 -0.7581
    CHANNELS 3 Zrotation Xrotation Yrotation
    JOINT RightLeg
    {
      OFFSET -0.7359 -41.0265 0
      CHANNELS 3 Zrotation Xrotation Yrotation
      JOINT RightFoot
      {
        OFFSET 0 -40.2855 0
        CHANNELS 3 Zrotation Xrotation Yrotation
        JOINT RightToeBase
        {
          OFFSET 0 -5.6122 11.7359
          CHANNELS 3 Zrotation Xrotation Yrotation
          End Site
          {
            OFFSET 0 0 7.8731
          }
        }
      }
    }
  }
  JOINT LeftUpLeg
  {
    OFFSET 9.1965 3.8864 -0.7581
    CHANNELS 3 Zrotation Xrotation Yrotation
    JOINT LeftLeg
    {
      OFFSET 0.7359 -41.0268 0
      CHANNELS 3 Zrotation Xrotation Yrotation
      JOINT LeftFoot
      {
        OFFSET 0 -40.2855 0
        CHANNELS 3 Zrotation Xrotation Yrotation
        JOINT LeftToeBase
        {
          OFFSET 0 -5.6122 11.7359
          CHANNELS 3 Zrotation Xrotation Yrotation
          End Site
          {
            OFFSET 0 0 7.8731
          }
        }
      }
    }
  }
}
MOTION
Frames:	4
Frame Time:	0.0333333
0.506371 21.1101 41.1138 -7.60612e-015 -4.80162 180 1.95064 4.17197 -0.522323 3.95517 8.32346 -1.1919 3.95517 8.32346 -1.1919 -27.0094 41.7325 19.0764 -8.27606e-007 -45.0035 -1.25814e-006 -9.62232 -28.5592 22.8963 -62.941 7.9067 -36.3159 51.7815 -14.0253 -104.704 -3.00687 -15.9974 -11.0049 6.36111e-015 0 3.18055e-015 7.11568e-007 -1.5844e-006 4.24021e-007 -4.26596e-006 1.3229e-007 4.73412e-008 6.36111e-015 0 3.18055e-015 -0.0146447 -9.01236e-005 -2.45126e-006 6.36111e-015 0 -0 6.36111e-015 0 3.18055e-015 -0.0186966 -0.00117049 5.83233e-005 -3.18055e-015 0 -0 6.36111e-015 0 3.18055e-015 -0.0122889 -0.00325312 0.000680051 -3.18055e-015 3.18055e-015 3.18055e-015 6.36111e-015 0 3.18055e-015 7.11568e-007 -1.5844e-006 4.24021e-007 -4.26596e-006 1.3229e-007 4.73412e-008 19.9051 -61.9532 -30.8185 21.4146 22.2575 -23.4108 43.6228 39.3254 -0.26142 42.7249 -21.8579 55.4163 -3.15389e-006 1.0341e-006 -1.61887e-006 -8.09436e-007 4.46279e-006 1.57694e-006 -2.63611e-006 1.82668e-006 5.29948e-007 -3.15389e-006 1.0341e-006 -1.61887e-006 0.0150339 -9.11446e-005 1.00169e-006 -2.63625e-006 1.82675e-006 5.29711e-007 -3.15389e-006 1.0341e-006 -1.61887e-006 0.0190151 -0.0011892 -6.49662e-005 -4.33212e-006 1.29253e-006 2.5578e-006 -3.15389e-006 1.0341e-006 -1.61887e-006 0.0122802 -0.0032455 -0.000673765 -2.63622e-006 1.82675e-006 5.29833e-007 -3.15389e-006 1.0341e-006 -1.61887e-006 -8.09436e-007 4.46279e-006 1.57694e-006 -2.63611e-006 1.82668e-006 5.29948e-007 -2.33985 -7.54371 -3.94063 -152.343 79.2726 148.809 -9.63626 54.4852 -2.55943 2.33617e-008 -2.80112e-008 -8.02031e-008 4.23343 -9.35324 4.00324 149.75 80.1612 -147.182 11.2003 53.8786 1.39036 2.03589e-007 -2.79966e-008 -5.75038e-008 
0.506365 21.0136 40.9993 -7.57543e-015 -4.55266 180 1.95089 4.38267 -0.540436 3.96066 8.74409 -1.23613 3.96065 8.74407 -1.23612 -26.4673 40.4967 18.2508 2.55484e-006 -45.0035 1.81079e-006 -8.98579 -29.4733 23.5122 -62.9411 7.9067 -36.3159 51.6858 -14.2973 -104.984 -3.05772 -16.5193 -10.4855 -0 -9.54166e-015 -0 -4.26332e-006 1.46304e-007 5.21397e-008 1.27222e-014 9.54166e-015 9.54166e-015 -0 -9.54166e-015 -0 -0.0145872 -9.0742e-005 -1.32614e-006 9.54166e-015 1.59028e-014 3.18055e-015 -0 -9.54166e-015 -0 -0.0187948 -0.00117745 6.19334e-005 6.36111e-015 3.18055e-015 6.36111e-015 -0 -9.54166e-015 -0 -0.0122555 -0.00324388 0.000676255 -1.76556e-031 -3.18055e-015 -3.18055e-015 -0 -9.54166e-015 -0 -4.26332e-006 1.46304e-007 5.21397e-008 1.27222e-014 9.54166e-015 9.54166e-015 20.8158 -62.197 -29.7435 21.9079 22.0656 -23.0382 43.6228 39.3254 -0.261454 41.7323 -23.0817 55.4321 9.10645e-007 1.31287e-006 5.38914e-007 3.18055e-015 0 6.36111e-015 9.10645e-007 1.31287e-006 5.38914e-007 9.10645e-007 1.31287e-006 5.38914e-007 0.0149855 -9.07046e-005 2.09711e-006 9.1068e-007 1.31294e-006 5.38742e-007 9.10645e-007 1.31287e-006 5.38914e-007 0.018965 -0.00118642 -6.4749e-005 9.10694e-007 1.31296e-006 5.38687e-007 9.10645e-007 1.31287e-006 5.38914e-007 0.0122699 -0.00324563 -0.000681768 9.10681e-007 1.31292e-006 5.38746e-007 9.10645e-007 1.31287e-006 5.38914e-007 3.18055e-015 0 6.36111e-015 9.10645e-007 1.31287e-006 5.38914e-007 -2.35074 -7.15111 -3.93533 -152.342 79.2729 148.808 -9.6366 54.4864 -2.55908 7.33456e-007 3.03954e-008 4.1447e-006 4.2503 -8.96695 3.9958 149.749 80.1615 -147.181 11.2006 53.8798 1.39002 6.40884e-007 6.52418e-006 -1.5467e-006 
0.506362 20.9275 40.897 -7.54808e-015 -4.33069 180 1.95103 4.57115 -0.556624 3.96562 9.12034 -1.27572 3.96562 9.12033 -1.27572 -26.0081 39.384 17.5359 -3.24147e-006 -45.0035 -4.4877e-008 -8.40222 -30.2862 24.078 -62.9411 7.9067 -36.3159 51.5991 -14.5399 -105.235 -3.09941 -16.9861 -10.0205 -2.83023e-006 -5.11815e-008 -1.0703e-007 -7.8071e-006 2.11727e-007 3.02583e-008 -2.83023e-006 -5.11815e-008 -1.07031e-007 -2.83023e-006 -5.11815e-008 -1.0703e-007 -0.0146226 -8.88339e-005 -9.47824e-007 -2.82932e-006 -5.11624e-008 -1.07035e-007 -2.83023e-006 -5.11815e-008 -1.0703e-007 -0.0187737 -0.00117539 5.73434e-005 -2.82907e-006 -5.10898e-008 -1.07013e-007 -2.83023e-006 -5.11815e-008 -1.0703e-007 -0.0123096 -0.0032548 0.000683616 -2.82947e-006 -5.09517e-008 -1.06998e-007 -2.83023e-006 -5.11815e-008 -1.0703e-007 -7.8071e-006 2.11727e-007 3.02583e-008 -2.83023e-006 -5.11815e-008 -1.07031e-007 21.6438 -62.408 -28.7688 22.3491 21.897 -22.7038 43.6228 39.3254 -0.261421 40.8367 -24.1769 55.4263 6.36111e-015 4.77083e-015 -0 -3.18055e-015 3.18055e-015 -9.54166e-015 -0 -3.18055e-015 -0 6.36111e-015 4.77083e-015 -0 0.0150138 -8.89748e-005 -2.42097e-007 -9.54166e-015 -1.59028e-015 -0 6.36111e-015 4.77083e-015 -0 0.0189938 -0.00118879 -6.46203e-005 6.36111e-015 -7.95139e-015 -0 6.36111e-015 4.77083e-015 -0 0.0122869 -0.00325424 -0.000682502 -6.36111e-015 1.59028e-015 -6.36111e-015 6.36111e-015 4.77083e-015 -0 -3.18055e-015 3.18055e-015 -9.54166e-015 -0 -3.18055e-015 -0 -2.36047 -6.80042 -3.93051 -152.341 79.2731 148.808 -9.63691 54.4875 -2.55878 -6.16236e-007 -8.02863e-008 1.53952e-007 4.26541 -8.62135 3.98906 149.747 80.1622 -147.178 11.2008 53.8807 1.38973 1.14404e-006 3.55893e-006 -2.73588e-007 
0.506357 20.8416 40.7948 -7.52074e-015 -4.10864 180 1.95114 4.75985 -0.57282 3.97069 9.49698 -1.3154 3.97069 9.49698 -1.3154 -25.5738 38.2669 16.8427 8.04984e-007 -45.0035 1.41102e-006 -7.80358 -31.0948 24.6588 -62.9411 7.90671 -36.3159 51.5111 -14.7821 -105.486 -3.13728 -17.4536 -9.55444 3.18055e-015 -3.18055e-015 -6.36111e-015 -0 0 3.18055e-015 0 0 -0 3.18055e-015 -3.18055e-015 -6.36111e-015 -0.0146067 -8.59541e-005 2.67973e-006 6.36111e-015 -3.18055e-015 -0 3.18055e-015 -3.18055e-015 -6.36111e-015 -0.0187654 -0.00117776 5.39308e-005 -9.54166e-015 -3.18055e-015 6.36111e-015 3.18055e-015 -3.18055e-015 -6.36111e-015 -0.0123796 -0.00327522 0.000681221 6.36111e-015 -3.18055e-015 -0 3.18055e-015 -3.18055e-015 -6.36111e-015 -0 0 3.18055e-015 0 0 -0 22.4856 -62.6124 -27.7805 22.7911 21.7307 -22.3683 43.6228 39.3254 -0.261428 39.932 -25.2732 55.4016 0 0 -3.18055e-015 -0 -6.36111e-015 -0 3.18055e-015 -7.95139e-015 -0 0 0 -3.18055e-015 0.0150119 -9.18584e-005 -2.17698e-006 3.18055e-015 -3.18055e-015 6.36111e-015 0 0 -3.18055e-015 0.0189998 -0.00119134 -6.19842e-005 0 6.36111e-015 -0 0 0 -3.18055e-015 0.0122608 -0.00324859 -0.000680446 6.36111e-015 -1.59028e-015 -0 0 0 -3.18055e-015 -0 -6.36111e-015 -0 3.18055e-015 -7.95139e-015 -0 -2.37028 -6.44868 -3.92566 -152.338 79.2742 148.805 -9.63722 54.4886 -2.55848 -2.05472e-007 -2.67554e-008 5.10825e-008 4.28054 -8.27603 3.98222 149.745 80.1626 -147.177 11.2011 53.8817 1.38942 9.08884e-007 -7.02467e-008 3.26068e-006 
